<svg id="Logo" xmlns="http://www.w3.org/2000/svg" viewBox="0 0 400 151.42"><defs><style>.cls-1{fill:#F2F2F2;}</style></defs><title>POINTER LOGO</title><path class="cls-1" d="M63.12,50.05a20.47,20.47,0,0,0-11.33-3.29q-11,0-17,11.15L32.49,48.2H18.7v84.52H38V103.83q4.18,5.63,12.22,5.63a21.86,21.86,0,0,0,12.17-3.54,24.53,24.53,0,0,0,8.76-10.61q3.28-7.07,3.29-17.86,0-10.55-3.12-17.32A23,23,0,0,0,63.12,50.05ZM52.63,91.42q-2.4,4.38-7.79,4.37A11.29,11.29,0,0,1,38,93.51V64.74a12.53,12.53,0,0,1,3.71-3.12A8.92,8.92,0,0,1,46,60.43c2.88,0,5.09,1.45,6.65,4.37S55,72.13,55,78.05,54.23,88.5,52.63,91.42Z"/><path class="cls-1" d="M129.58,56.71a24.43,24.43,0,0,0-6.48-5.88,27.86,27.86,0,0,0-7.49-3,35,35,0,0,0-8.51-1A34.61,34.61,0,0,0,96,48.5,23.47,23.47,0,0,0,87,54a25.09,25.09,0,0,0-6,9.77A41.93,41.93,0,0,0,78.8,77.81,42.73,42.73,0,0,0,81,92.26a25.73,25.73,0,0,0,6.12,9.95,23.69,23.69,0,0,0,9.11,5.51,35.16,35.16,0,0,0,11.21,1.74,29.27,29.27,0,0,0,15.16-3.72,24.39,24.39,0,0,0,9.65-10.49q3.36-6.77,3.36-17a47.57,47.57,0,0,0-1.5-11.93A25.6,25.6,0,0,0,129.58,56.71ZM114.35,92q-1.86,5.27-7,5.27-4.8,0-7-4.73T98.23,77.69q0-9.7,2.09-14.21A7,7,0,0,1,107.1,59q4.66,0,6.89,4.73t2.22,14.45A42.38,42.38,0,0,1,114.35,92Z"/><rect class="cls-1" x="140.43" y="48.2" width="18.88" height="59.83"/><path class="cls-1" d="M202,46.76a20.5,20.5,0,0,0-9.77,2.46q-4.62,2.45-9,9.77L180.9,48.2H166.64V108h19.3V65.94q4.06-4.32,8.75-4.32a5.49,5.49,0,0,1,4.56,1.8q1.42,1.8,1.43,5.76V108H220V65.34q0-9-5-13.79T202,46.76Z"/><path class="cls-1" d="M316.85,49.87q-5.7-3.1-14.45-3.11a30,30,0,0,0-12.76,2.58,24.4,24.4,0,0,0-9.12,7.07,30.79,30.79,0,0,0-5.27,10.37,43.7,43.7,0,0,0-1.74,12.47,37.74,37.74,0,0,0,2.22,13.49,24.71,24.71,0,0,0,6.17,9.47,25.56,25.56,0,0,0,9.29,5.45,36,36,0,0,0,11.57,1.8,37.86,37.86,0,0,0,8.58-1,33.33,33.33,0,0,0,7.07-2.4,19.39,19.39,0,0,0,5.09-3.53,15.54,15.54,0,0,0,3.36-4.74,13.71,13.71,0,0,0,1.2-5.75l-.12-2.16-15.23-2,.12,1.44a5.88,5.88,0,0,1-2.69,5,11.2,11.2,0,0,1-6.66,1.92,9.79,9.79,0,0,1-6-1.86A9.54,9.54,0,0,1,294,88.9a35.73,35.73,0,0,1-1.08-8.09h35.25l.36-6.24q0-9.46-3-15.52A20.56,20.56,0,0,0,316.85,49.87Zm-7.61,20.51H293.53q1-6.36,3.3-9.48a6.85,6.85,0,0,1,5.57-3.11A6.08,6.08,0,0,1,306,59a7.22,7.22,0,0,1,2.52,3.83,18.1,18.1,0,0,1,.84,5.52Z"/><path class="cls-1" d="M379.38,54A12.46,12.46,0,0,0,374,48.38a15.09,15.09,0,0,0-6.83-1.62,16.49,16.49,0,0,0-6.9,1.5A15.93,15.93,0,0,0,354.44,53a24.68,24.68,0,0,0-4,7.44L347.9,48.2H333.64V108h19.3V69.42q1.44-4.2,3.12-5.7a5.44,5.44,0,0,1,3.71-1.5,4.1,4.1,0,0,1,3.12,1.44,7,7,0,0,1,1.44,4.56,16.34,16.34,0,0,1-1.08,6.35l16.19-2.28a26.68,26.68,0,0,0,1.85-9.23A17.89,17.89,0,0,0,379.38,54Z"/><polygon class="cls-1" points="140.6 37.41 159.31 37.41 159.31 18.7 140.6 37.41"/><path class="cls-1" d="M230.76,36.57V48.2h-8.25V60.43h6.81V89.56q0,9.94,5.45,14.92t15.29,5q11.26,0,17.08-6.11t4.38-16.07L256.41,85q1,5.52-.05,8.16a3.69,3.69,0,0,1-3.66,2.63q-2.64,0-3.36-2a13.8,13.8,0,0,1-.72-4.73V60.43h18.47V48.2H248.62V18.7Z"/></svg>
