<?xml version="1.0" encoding="UTF-8"?>
<svg width="74px" height="43px" viewBox="0 0 74 43" version="1.1" xmlns="http://www.w3.org/2000/svg" xmlns:xlink="http://www.w3.org/1999/xlink">
    <!-- Generator: Sketch 53.2 (72643) - https://sketchapp.com -->
    <title>blue</title>
    <desc>Created with Sketch.</desc>
    <g id="blue" stroke="none" stroke-width="1" fill="none" fill-rule="evenodd">
        <g id="Group-6" transform="translate(11.000000, 6.000000)" fill="#1BEAAE">
            <path d="M23.0860215,0 L31.8227436,0 C31.8227436,4.40991005 34.5030825,6.98484848 39.0430108,6.98484848 C43.582939,6.98484848 46.2632779,4.40991005 46.2632779,1.77635684e-15 L55,0 C55,8.56041362 47.8558126,15.5 39.0430108,15.5 C30.2302089,15.5 23.0860215,8.56041362 23.0860215,0 Z" id="Combined-Shape-Copy-3" transform="translate(39.043011, 7.750000) scale(-1, -1) translate(-39.043011, -7.750000) "></path>
            <path d="M3.73034936e-14,15 L8.73672206,15 C8.73672206,19.40991 11.417061,21.9848485 15.9569892,21.9848485 C20.4969175,21.9848485 23.1772564,19.40991 23.1772564,15 L31.9139785,15 C31.9139785,23.5604136 24.7697911,30.5 15.9569892,30.5 C7.14418743,30.5 3.90798505e-14,23.5604136 3.90798505e-14,15 Z" id="Combined-Shape-Copy-4" transform="translate(15.956989, 22.750000) scale(-1, 1) translate(-15.956989, -22.750000) "></path>
        </g>
    </g>
</svg>