<?xml version="1.0" encoding="UTF-8"?>
<svg width="41px" height="45px" viewBox="0 0 41 45" version="1.1" xmlns="http://www.w3.org/2000/svg" xmlns:xlink="http://www.w3.org/1999/xlink">
    <!-- Generator: Sketch 53.2 (72643) - https://sketchapp.com -->
    <title>hand</title>
    <desc>Created with Sketch.</desc>
    <g id="hand" stroke="none" stroke-width="1" fill="none" fill-rule="evenodd">
        <g id="Group-24" transform="translate(6.000000, 4.000000)">
            <polygon id="Path-8" fill="#FFFFFF" points="7.73333333 1.89473684 7.73333333 19.1461472 5.8 18.8189908 3.89010825 17.0466144 1.93333333 16.7958763 1.33599918 18.8189908 2.19939281 21.7894737 4.83333333 26.2294331 7.12582409 31.4905726 9.13116313 33.8485078 10.6333333 35.7432447 24.1666667 35.0526316 24.6756357 32.4953657 25.7853577 31.8489805 26.7621177 27.5403758 27.1905032 26.0989019 28.5840281 20.5853499 26.1 18 25.7853577 16.1052632 24.4622339 14.2105263 21.8984335 13.5090077 19.7745462 12.6674312 16.2100949 10.7319939 13.2985302 9.74438889 12.5666667 2.84210526 11.6151786 1.89473684 9.38449443 1.89473684"></polygon>
            <g id="Group-23" stroke="#6B38E8" stroke-linecap="square" stroke-width="1.92">
                <path d="M6.76666667,2.84210526 L6.76666667,21.7894737" id="Line-10"></path>
                <path d="M10.6333333,0.947368421 L8.7,0.947368421" id="Line-11"></path>
                <path d="M12.5666667,2.84210526 L12.5666667,16.1052632" id="Line-12"></path>
                <path d="M16.4333333,10.4210526 L14.5,10.4210526" id="Line-13"></path>
                <path d="M22.2333333,35.0526316 L8.7,35.0526316" id="Line-13-Copy"></path>
                <path d="M8.7,33.1578947 L8.7,35.0526316" id="Line-19"></path>
                <path d="M6.76666667,29.3684211 L6.76666667,31.2631579" id="Line-20"></path>
                <path d="M4.83333333,25.5789474 L4.83333333,27.4736842" id="Line-21"></path>
                <path d="M2.9,21.7894737 L2.9,23.6842105" id="Line-22"></path>
                <path d="M0.966666667,16.1052632 L0.966666667,19.8947368" id="Line-23"></path>
                <path d="M18.3666667,16.1052632 L18.3666667,12.3157895" id="Line-14"></path>
                <path d="M20.3,12.3157895 L18.3666667,12.3157895" id="Line-15"></path>
                <path d="M22.2333333,18 L22.2333333,14.2105263" id="Line-16"></path>
                <path d="M24.1666667,14.2105263 L22.2333333,14.2105263" id="Line-17"></path>
                <path d="M26.1,16.1052632 L26.1,18" id="Line-18"></path>
                <path d="M28.0333333,19.8947368 L28.0333333,25.5789474" id="Line-18-Copy"></path>
                <path d="M26.1,27.4736842 L26.1,31.2631579" id="Line-18-Copy-2"></path>
                <path d="M24.1666667,33.1578947 L24.1666667,35.0526316" id="Line-18-Copy-3"></path>
                <path d="M2.9,16.1052632 L0.966666667,16.1052632" id="Line-24"></path>
                <path d="M6.76666667,18 L4.83333333,18" id="Line-25"></path>
            </g>
        </g>
    </g>
</svg>