<?xml version="1.0" encoding="UTF-8"?>
<svg width="52px" height="50px" viewBox="0 0 52 50" version="1.1" xmlns="http://www.w3.org/2000/svg" xmlns:xlink="http://www.w3.org/1999/xlink">
    <!-- Generator: Sketch 53.2 (72643) - https://sketchapp.com -->
    <title>twitter_purple</title>
    <desc>Created with Sketch.</desc>
    <g id="twitter_purple" stroke="none" stroke-width="1" fill="none" fill-rule="evenodd">
        <g id="Twitter_Social_Icon_Rounded_Square_Color" transform="translate(3.000000, 2.000000)">
            <g id="Dark_Blue" fill="#6B38E8">
                <path d="M41.125,47 L5.875,47 C2.632,47 0,44.368 0,41.125 L0,5.875 C0,2.632 2.632,0 5.875,0 L41.125,0 C44.368,0 47,2.632 47,5.875 L47,41.125 C47,44.368 44.368,47 41.125,47 Z" id="Path"></path>
            </g>
            <g id="Logo__x2014__FIXED" transform="translate(10.000000, 13.000000)" fill="#FFFFFF" fill-rule="nonzero">
                <path d="M9.1176,23.9529412 C20.0564,23.9529412 26.042,14.7529412 26.042,6.78823529 C26.042,6.52941176 26.042,6.27058824 26.0304,6.01176471 C27.1904,5.16470588 28.1996,4.09411765 29,2.88235294 C27.9328,3.36470588 26.7844,3.68235294 25.578,3.83529412 C26.8076,3.09411765 27.7472,1.90588235 28.1996,0.494117647 C27.0512,1.18823529 25.7752,1.68235294 24.418,1.95294118 C23.3276,0.776470588 21.7848,0.0470588235 20.0796,0.0470588235 C16.7968,0.0470588235 14.1288,2.75294118 14.1288,6.08235294 C14.1288,6.55294118 14.1868,7.01176471 14.2796,7.45882353 C9.338,7.21176471 4.9532,4.8 2.0184,1.15294118 C1.508,2.04705882 1.218,3.08235294 1.218,4.18823529 C1.218,6.28235294 2.2736,8.12941176 3.8628,9.21176471 C2.8884,9.17647059 1.972,8.90588235 1.1716,8.45882353 C1.1716,8.48235294 1.1716,8.50588235 1.1716,8.54117647 C1.1716,11.4588235 3.2248,13.9058824 5.9392,14.4588235 C5.4404,14.6 4.9184,14.6705882 4.3732,14.6705882 C3.9904,14.6705882 3.6192,14.6352941 3.2596,14.5647059 C4.0136,16.9647059 6.2176,18.7058824 8.816,18.7529412 C6.7744,20.3764706 4.2108,21.3411765 1.4268,21.3411765 C0.9512,21.3411765 0.4756,21.3176471 0.0116,21.2588235 C2.6332,22.9529412 5.7652,23.9529412 9.1176,23.9529412" id="Path"></path>
            </g>
        </g>
    </g>
</svg>